<svg xmlns="http://www.w3.org/2000/svg" width="40" height="40" fill="none"><path fill="#fff" d="M20 0a4.523 4.523 0 0 1 4.517 4.517 4.51 4.51 0 0 1-1.953 3.712c2.648 1.031 4.533 3.602 4.533 6.61v3.225h-6.452v.646c0 .356.29.644.645.645h1.291c1.067 0 1.935.868 1.936 1.935v1.291a1.94 1.94 0 0 1-1.936 1.936h-1.153l.69.69-.964 1.589q.041.09.076.18l.048.12h6.287a5.15 5.15 0 0 1-1.758-3.87 5.167 5.167 0 0 1 5.16-5.161 5.167 5.167 0 0 1 5.162 5.16 5.16 5.16 0 0 1-1.903 4c3.282.622 5.774 3.507 5.774 6.968V40H25.161v-7.419a.97.97 0 0 0-.968-.968h-.967v1.15l-1.802.443q-.12.322-.269.643l.963 1.59-3.453 3.453-1.59-.963q-.32.15-.642.268L15.989 40h-4.882l-.443-1.802a9 9 0 0 1-.641-.268l-1.59.963-3.454-3.453.963-1.591q-.149-.321-.268-.642l-1.803-.443V27.88l1.803-.442q.12-.323.268-.643l-.963-1.59.69-.69H4.517a1.94 1.94 0 0 1-1.936-1.935V21.29c0-1.067.869-1.935 1.936-1.935h1.29a.645.645 0 0 0 .644-.645v-.646H0V14.84c0-3.008 1.885-5.578 4.532-6.61a4.51 4.51 0 0 1-1.951-3.712A4.52 4.52 0 0 1 7.097 0a4.523 4.523 0 0 1 4.516 4.517 4.51 4.51 0 0 1-1.952 3.712 7.13 7.13 0 0 1 3.888 3.67 7.13 7.13 0 0 1 3.887-3.67 4.51 4.51 0 0 1-1.953-3.712A4.523 4.523 0 0 1 20 0m-8.253 23.45-.346.108a7 7 0 0 0-1.113.465l-.321.168-1.338-.81-2.022 2.021.81 1.338-.167.322c-.192.37-.35.745-.466 1.113l-.108.345-1.515.373v2.859l1.514.372.11.346c.116.368.273.743.465 1.113l.167.321-.81 1.338 2.02 2.022 1.34-.81.321.167c.37.192.745.348 1.114.466l.344.11.373 1.513h2.86l.37-1.514.346-.11a7 7 0 0 0 1.114-.465l.32-.167 1.339.81 2.021-2.022-.81-1.338.168-.321c.192-.37.348-.745.465-1.114l.11-.344 1.514-.373v-.139H19.21a5.814 5.814 0 0 1-5.661 4.516 5.813 5.813 0 0 1-5.807-5.807 5.81 5.81 0 0 1 5.807-5.805c1.935 0 3.74.984 4.812 2.58h1.503l-.017-.035-.167-.32.81-1.339-2.021-2.021-1.34.81-.32-.168a7 7 0 0 0-1.113-.465l-.345-.11-.373-1.514H12.12zm4.06 4.937a.969.969 0 0 0 0 1.936h8.386a2.26 2.26 0 0 1 2.258 2.258v6.129h9.032v-7.097h1.291v7.097h1.936v-4.517a5.813 5.813 0 0 0-5.807-5.806zm-2.258-2.58a4.52 4.52 0 0 0-4.517 4.515 4.523 4.523 0 0 0 4.517 4.517 4.52 4.52 0 0 0 4.326-3.226h-1.371a3.23 3.23 0 0 1-2.955 1.936 3.23 3.23 0 0 1-3.227-3.227 3.23 3.23 0 0 1 3.227-3.225c.428 0 .852.087 1.245.25a2.2 2.2 0 0 1 1.013-.25h.897a4.53 4.53 0 0 0-3.155-1.29m0 2.58a1.94 1.94 0 0 0-1.936 1.935 1.931 1.931 0 0 0 3.476 1.163 2.25 2.25 0 0 1-1.54-2.13c0-.337.078-.653.21-.94q-.038-.005-.075-.013a1 1 0 0 0-.135-.015m17.419-9.032a3.875 3.875 0 0 0-3.871 3.87 3.875 3.875 0 0 0 3.87 3.872 3.875 3.875 0 0 0 3.872-3.871 3.875 3.875 0 0 0-3.871-3.871M7.742 18.71a1.94 1.94 0 0 1-1.935 1.935h-1.29a.645.645 0 0 0-.646.645v1.291c0 .356.29.645.646.645h2.442l1.473-1.472 1.59.962q.32-.15.642-.269l.443-1.802h4.882l.444 1.802q.322.12.642.269l1.59-.962 1.473 1.472h2.443a.645.645 0 0 0 .645-.645V21.29a.645.645 0 0 0-.645-.645H21.29a1.94 1.94 0 0 1-1.935-1.935v-.646H7.742zm-.645-9.678A5.813 5.813 0 0 0 1.29 14.84v1.935h1.936v-5.16h1.29v5.16h5.162v-5.16h1.29v5.16h1.935V14.84a5.813 5.813 0 0 0-5.806-5.807m12.903 0a5.813 5.813 0 0 0-5.807 5.807v1.935h1.936v-5.16h1.29v5.16h5.162v-5.16h1.29v5.16h1.936V14.84A5.813 5.813 0 0 0 20 9.032m15.483-1.29A4.52 4.52 0 0 1 40 12.258a4.523 4.523 0 0 1-4.517 4.516h-7.096v-4.516a4.52 4.52 0 0 1 4.516-4.516zm-2.58 1.29a3.23 3.23 0 0 0-3.225 3.226v3.225h5.805a3.23 3.23 0 0 0 3.227-3.225 3.23 3.23 0 0 0-3.227-3.226zm-.645 5.161h-1.29v-1.29h1.29zm2.58 0h-1.29v-1.29h1.29zm2.58 0h-1.29v-1.29h1.29zm0-2.58h-6.45v-1.29h6.45zM7.098 1.29A3.23 3.23 0 0 0 3.87 4.517a3.23 3.23 0 0 0 3.226 3.225 3.23 3.23 0 0 0 3.225-3.225A3.23 3.23 0 0 0 7.097 1.29M20 1.29a3.23 3.23 0 0 0-3.226 3.227A3.23 3.23 0 0 0 20 7.742a3.23 3.23 0 0 0 3.226-3.225A3.23 3.23 0 0 0 20 1.29"/></svg>