<svg xmlns="http://www.w3.org/2000/svg" width="1391" height="1035" fill="none"><g filter="url(#a)"><path fill="#2d314d" fill-rule="evenodd" d="M117.758 503.399c-36.24 0-54.388 43.816-28.761 69.44L223.28 707.113a100 100 0 0 0 70.708 29.286h70.693c26.52 0 51.954 10.535 70.708 29.287l161.039 161.027A100 100 0 0 0 667.136 956h388.854c72.53 0 108.86-87.698 57.57-138.985l-86.4-86.385c-19.41-19.41-5.66-52.6 21.79-52.6s41.2-33.189 21.79-52.599l-195.338-195.32a100 100 0 0 0-70.708-29.287H570.252a100 100 0 0 1-70.708-29.287l-35.253-35.25A100 100 0 0 0 393.583 307H158.432c-51.249 0-76.914 61.963-40.674 98.199l28.761 28.76c25.627 25.624 7.479 69.44-28.761 69.44" clip-rule="evenodd"/></g><path fill="url(#b)" fill-rule="evenodd" d="M255.758 196.399c-36.24 0-54.388 43.816-28.762 69.44L361.28 400.113a100 100 0 0 0 70.708 29.286h70.693c26.52 0 51.954 10.535 70.708 29.287l161.039 161.027A100 100 0 0 0 805.136 649h388.854c72.53 0 108.86-87.698 57.57-138.985l-86.4-86.385c-19.41-19.41-5.66-52.6 21.79-52.6s41.2-33.189 21.79-52.599l-195.34-195.32a100 100 0 0 0-70.706-29.287H708.252a100 100 0 0 1-70.708-29.287l-35.253-35.25A100 100 0 0 0 531.583 0H296.432c-51.249 0-76.914 61.963-40.674 98.2l28.761 28.759c25.627 25.624 7.479 69.44-28.761 69.44" clip-rule="evenodd"/><defs><linearGradient id="b" x1="-456.362" x2="76.385" y1="323.138" y2="1335.28" gradientUnits="userSpaceOnUse"><stop stop-color="#33d35e"/><stop offset="1" stop-color="#2ab6d9"/></linearGradient><filter id="a" width="1214.57" height="803" x="0" y="232" color-interpolation-filters="sRGB" filterUnits="userSpaceOnUse"><feFlood flood-opacity="0" result="BackgroundImageFix"/><feColorMatrix in="SourceAlpha" result="hardAlpha" values="0 0 0 0 0 0 0 0 0 0 0 0 0 0 0 0 0 0 127 0"/><feOffset dy="2"/><feGaussianBlur stdDeviation="38.5"/><feColorMatrix values="0 0 0 0 0 0 0 0 0 0 0 0 0 0 0 0 0 0 0.0240111 0"/><feBlend in2="BackgroundImageFix" result="effect1_dropShadow_21657_3"/><feBlend in="SourceGraphic" in2="effect1_dropShadow_21657_3" result="shape"/></filter></defs></svg>