<svg width="139" height="20" viewBox="0 0 139 20" fill="none" xmlns="http://www.w3.org/2000/svg">
<g id="logo">
<path id="easybank" fill-rule="evenodd" clip-rule="evenodd" d="M91.2954 15.8461C94.7958 15.8461 97.2685 13.3312 97.2685 9.79811C97.2685 6.26505 94.7958 3.75032 91.2954 3.75032C90.244 3.75053 89.284 4.03158 88.4703 4.53411V0H84.5992V15.4737H87.4969L87.8661 14.6297C88.7897 15.4013 89.9687 15.8461 91.2954 15.8461ZM64.6906 15.8461C67.7114 15.8463 69.7165 14.2916 69.7165 11.9158C69.7165 9.08169 67.4089 8.67295 65.6247 8.3569L65.5329 8.34063L65.5104 8.33662C64.4408 8.14588 63.5834 7.99298 63.5834 7.35053C63.5834 6.82358 64.0051 6.51284 64.6329 6.51284C65.3423 6.51284 65.8303 6.85032 65.8303 7.57621H69.4973C69.4527 5.27263 67.5765 3.73263 64.6815 3.73263C61.7687 3.73263 59.8268 5.20379 59.8268 7.48253C59.8268 10.2398 62.1636 10.7718 63.9263 11.0575C65.0186 11.2381 65.8792 11.4251 65.8792 12.0808C65.8792 12.6684 65.3362 12.9606 64.7634 12.9606C64.0209 12.9606 63.4421 12.5779 63.4421 11.7465H59.6731C59.7089 14.2097 61.592 15.8461 64.6906 15.8461ZM43.7059 11.6309C42.9059 14.2255 40.6061 15.8465 37.7539 15.8465C34.2068 15.8465 31.579 13.2539 31.579 9.78084C31.579 6.29558 34.1857 3.73284 37.7539 3.73284C41.4183 3.73284 43.9556 6.34716 43.9554 9.68211C43.9554 10.0246 43.9255 10.3672 43.8746 10.7187H35.4331C35.6893 12.0227 36.5175 12.6971 37.7539 12.6971C38.6687 12.6971 39.4329 12.2964 39.8093 11.6309H43.7059ZM35.5021 8.55032H40.0979C39.7543 7.4141 38.9354 6.80105 37.7537 6.80105C36.6125 6.80105 35.819 7.42105 35.5021 8.55032ZM51.044 15.8463C52.3645 15.8463 53.5434 15.4118 54.4743 14.6577L54.8097 15.4617H57.8369V4.09326L54.9183 4.09305L54.5177 4.97221C53.579 4.19768 52.383 3.75053 51.044 3.75053C47.5678 3.75053 45.083 6.25642 45.083 9.77726C45.083 13.3103 47.5678 15.8463 51.044 15.8463ZM49.0228 9.78632C49.0228 11.2709 50.1009 12.3792 51.5676 12.3792C53.0343 12.3792 54.1125 11.2709 54.1125 9.78632C54.1125 8.31074 53.0343 7.20253 51.5676 7.20253C50.092 7.20253 49.0228 8.31074 49.0228 9.78632ZM78.6676 14.9678C77.1352 18.4472 75.7266 19.704 72.7912 19.704H71.4503V16.3394H72.5272C74.0253 16.3394 74.4771 15.9493 75.0076 14.5345L70.3097 4.10526H74.5649L76.9775 10.3678L79.2257 4.10526H83.4325L78.6676 14.9678ZM88.2268 9.79811C88.2268 11.2705 89.3049 12.3787 90.7716 12.3787C92.2293 12.3787 93.3165 11.2705 93.3165 9.79811C93.3165 8.31347 92.2383 7.20526 90.7716 7.20526C89.3049 7.20526 88.2268 8.31347 88.2268 9.79811ZM104.37 15.8463C105.691 15.8463 106.87 15.4118 107.801 14.6577L108.136 15.4617H111.163V4.09326L108.245 4.09305L107.844 4.97221C106.905 4.19768 105.709 3.75053 104.37 3.75053C100.894 3.75053 98.4093 6.25642 98.4093 9.77726C98.4093 13.3103 100.894 15.8463 104.37 15.8463ZM102.349 9.78632C102.349 11.2709 103.427 12.3792 104.894 12.3792C106.361 12.3792 107.439 11.2709 107.439 9.78632C107.439 8.31074 106.361 7.20253 104.894 7.20253C103.418 7.20253 102.349 8.31074 102.349 9.78632ZM117.547 15.4737V9.40295C117.547 7.956 118.249 7.10316 119.47 7.10316C120.456 7.10316 120.953 7.75958 120.953 9.08274V15.4737H124.868V8.54169C124.868 5.64526 123.135 3.76905 120.495 3.76905C119.024 3.76905 117.762 4.33432 116.916 5.27747L116.378 4.10526H113.631V15.4737H117.547ZM131.295 10.6661V15.4737H127.379V0H131.295V8.55895L134.003 4.10526H138.4L134.857 9.52358L138.759 15.4737H134.143L131.295 10.6661Z" fill="#2D314D"/>
<g id="Group 8">
<path id="Path 5" fill-rule="evenodd" clip-rule="evenodd" d="M10.8025 0L0 19.704H5.98608L16.7885 0H10.8025Z" fill="url(#paint0_linear_21657_1064)"/>
<path id="Path 5 Copy" opacity="0.5" fill-rule="evenodd" clip-rule="evenodd" d="M18.1709 0L7.36841 19.704H13.3545L24.157 0H18.1709Z" fill="url(#paint1_linear_21657_1064)"/>
<path id="Path 5 Copy 2" opacity="0.15" fill-rule="evenodd" clip-rule="evenodd" d="M25.5393 0L14.7368 19.704H20.7229L31.5254 0H25.5393Z" fill="url(#paint2_linear_21657_1064)"/>
</g>
</g>
<defs>
<linearGradient id="paint0_linear_21657_1064" x1="5.13267" y1="-7.42211" x2="-10.1946" y2="9.91277" gradientUnits="userSpaceOnUse">
<stop stop-color="#33D35E"/>
<stop offset="1" stop-color="#2AB6D9"/>
</linearGradient>
<linearGradient id="paint1_linear_21657_1064" x1="12.5011" y1="-7.42211" x2="-2.82619" y2="9.91277" gradientUnits="userSpaceOnUse">
<stop stop-color="#33D35E"/>
<stop offset="1" stop-color="#2AB6D9"/>
</linearGradient>
<linearGradient id="paint2_linear_21657_1064" x1="19.8695" y1="-7.42211" x2="4.54222" y2="9.91277" gradientUnits="userSpaceOnUse">
<stop stop-color="#33D35E"/>
<stop offset="1" stop-color="#2AB6D9"/>
</linearGradient>
</defs>
</svg>
