<svg xmlns="http://www.w3.org/2000/svg" width="139" height="20" fill="none"><path fill="#fff" fill-rule="evenodd" d="M91.295 15.846c3.5 0 5.974-2.515 5.974-6.048S94.796 3.75 91.295 3.75a5.33 5.33 0 0 0-2.825.784V0H84.6v15.474h2.897l.37-.844c.923.771 2.102 1.216 3.428 1.216m-26.604 0c3.02 0 5.025-1.554 5.025-3.93 0-2.834-2.307-3.243-4.091-3.56l-.092-.015-.023-.004c-1.07-.191-1.927-.344-1.927-.986 0-.527.422-.838 1.05-.838.71 0 1.197.337 1.197 1.063h3.667c-.044-2.303-1.92-3.843-4.815-3.843-2.913 0-4.855 1.47-4.855 3.75 0 2.757 2.337 3.289 4.1 3.574 1.092.181 1.952.368 1.952 1.024 0 .587-.543.88-1.116.88-.742 0-1.32-.383-1.32-1.215h-3.77c.036 2.464 1.919 4.1 5.018 4.1m-20.985-4.215c-.8 2.595-3.1 4.216-5.952 4.216-3.547 0-6.175-2.593-6.175-6.066 0-3.485 2.607-6.048 6.175-6.048 3.664 0 6.202 2.614 6.201 5.95 0 .342-.03.684-.08 1.036h-8.442c.256 1.304 1.084 1.978 2.32 1.978.916 0 1.68-.4 2.056-1.066zm-8.204-3.08h4.596c-.344-1.137-1.163-1.75-2.344-1.75-1.142 0-1.935.62-2.252 1.75m15.542 7.295c1.32 0 2.5-.434 3.43-1.188l.336.804h3.027V4.093h-2.919l-.4.88c-.939-.775-2.135-1.222-3.474-1.222-3.476 0-5.961 2.505-5.961 6.026 0 3.533 2.485 6.07 5.961 6.07m-2.021-6.06c0 1.485 1.078 2.593 2.545 2.593s2.544-1.108 2.544-2.593c0-1.475-1.078-2.583-2.544-2.583-1.476 0-2.545 1.108-2.545 2.583m29.645 5.182c-1.533 3.48-2.941 4.736-5.877 4.736h-1.34v-3.365h1.076c1.498 0 1.95-.39 2.48-1.804L70.31 4.105h4.255l2.413 6.263 2.248-6.263h4.207zm9.559-5.17c0 1.473 1.078 2.58 2.545 2.58 1.457 0 2.544-1.107 2.544-2.58 0-1.485-1.078-2.593-2.544-2.593-1.467 0-2.545 1.108-2.545 2.593m16.143 6.048c1.321 0 2.5-.434 3.431-1.188l.335.804h3.027V4.093h-2.918l-.401.88c-.939-.775-2.135-1.222-3.474-1.222-3.476 0-5.96 2.505-5.96 6.026 0 3.533 2.484 6.07 5.96 6.07m-2.021-6.06c0 1.485 1.078 2.593 2.545 2.593s2.545-1.108 2.545-2.593c0-1.475-1.078-2.583-2.545-2.583-1.476 0-2.545 1.108-2.545 2.583m15.198 5.688V9.403c0-1.447.702-2.3 1.923-2.3.986 0 1.483.657 1.483 1.98v6.39h3.915V8.543c0-2.897-1.733-4.773-4.373-4.773-1.471 0-2.733.565-3.579 1.508l-.538-1.172h-2.747v11.369zm13.748-4.808v4.808h-3.916V0h3.916v8.559l2.708-4.454h4.397l-3.543 5.419 3.902 5.95h-4.616z" clip-rule="evenodd"/><path fill="url(#a)" fill-rule="evenodd" d="M10.803 0 0 19.704h5.986L16.788 0z" clip-rule="evenodd"/><path fill="url(#b)" fill-rule="evenodd" d="M18.17 0 7.369 19.704h5.986L24.158 0z" clip-rule="evenodd" opacity=".5"/><path fill="url(#c)" fill-rule="evenodd" d="M25.54 0 14.736 19.704h5.986L31.525 0z" clip-rule="evenodd" opacity=".15"/><defs><linearGradient id="a" x1="5.133" x2="-10.195" y1="-7.422" y2="9.913" gradientUnits="userSpaceOnUse"><stop stop-color="#33d35e"/><stop offset="1" stop-color="#2ab6d9"/></linearGradient><linearGradient id="b" x1="12.501" x2="-2.826" y1="-7.422" y2="9.913" gradientUnits="userSpaceOnUse"><stop stop-color="#33d35e"/><stop offset="1" stop-color="#2ab6d9"/></linearGradient><linearGradient id="c" x1="19.869" x2="4.542" y1="-7.422" y2="9.913" gradientUnits="userSpaceOnUse"><stop stop-color="#33d35e"/><stop offset="1" stop-color="#2ab6d9"/></linearGradient></defs></svg>