<svg xmlns="http://www.w3.org/2000/svg" width="40" height="40" fill="none"><path fill="#fff" d="M29.984 0a3.336 3.336 0 0 1 3.331 3.332v3.727l4.11 4.118a8.72 8.72 0 0 1 2.553 6.141v21.995a.666.666 0 0 1-.666.665H27.319a.666.666 0 0 1-.666-.666V32.84l-.383-.613a9.63 9.63 0 0 1-.83-8.551L9.8 29.7a3.333 3.333 0 0 1-4.307-1.91l-2.505-6.502A3.326 3.326 0 0 1 0 17.99V3.332A3.337 3.337 0 0 1 3.332 0zm-1.999 38.647h10.662v-5.332H27.985zm2.665-2.666h-1.333v-1.333h1.333zm5.93-20.168a3.33 3.33 0 0 1-1.91 4.305l-.684.267 2.466 2.465-.942.942-10.618-10.615a2.223 2.223 0 0 0-3.208 3.073l5.46 5.957c.195.213.23.529.087.78a8.31 8.31 0 0 0 .168 8.535l.29.461h10.958V17.318a7.38 7.38 0 0 0-2.164-5.198l-2.158-2.163zm-23.015 5.51-7.954 3.064 1.124 2.924a2 2 0 0 0 2.584 1.146l16.074-6.195-.866-.944H13.565zm-8.434 1.823 4.738-1.824H4.43zM3.332 1.334a2 2 0 0 0-1.999 1.999V17.99a2 2 0 0 0 1.999 2h19.974l-2.602-2.842a3.555 3.555 0 0 1 5.13-4.917l6.104 6.105q.037-.172.045-.346V7.582l-.006-.016h.006V3.332a2 2 0 0 0-1.999-1.999zM33.315 17.99a3.3 3.3 0 0 1-.28 1.333l1.155-.446a2 2 0 0 0 1.148-2.584l-2.023-5.25zM5.997 16.658H3.332v-1.333h2.665zm11.993 0h-2.665v-1.333h2.665zM5.997 12.66H3.332v-1.333h2.665zm3.998 0H7.33v-1.333h2.666zm3.997 0h-2.665v-1.333h2.665zm3.998 0h-2.665v-1.333h2.665zM7.596 2.665c.956 0 1.732.776 1.732 1.732v3.199c0 .957-.775 1.732-1.732 1.732H4.397a1.733 1.733 0 0 1-1.732-1.732V4.397c0-.956.776-1.732 1.732-1.732zM4.397 3.998a.4.4 0 0 0-.399.4v.932H5.33v1.333H3.998v.933c0 .22.179.4.4.4h3.198a.4.4 0 0 0 .4-.4v-.933H6.663V5.33h1.333v-.933a.4.4 0 0 0-.4-.399zM21.322 5.33H19.99V3.332h1.333zm2.665 0h-1.333V3.332h1.333zm2.665 0H25.32V3.332h1.332zm2.665 0h-1.332V3.332h1.332z"/></svg>