<svg xmlns="http://www.w3.org/2000/svg" width="40" height="40" fill="none"><path fill="#fff" d="M10.831 11.918c.313.08.503.4.422.713q-.06.235-.06.48V26.89c0 1.058.86 1.919 1.918 1.919H26.89q.245 0 .48-.06a.587.587 0 0 1 .292 1.135 3 3 0 0 1-.772.097h-1.293v1.767c0 .345.134.67.379.914l3.855 3.855a1.84 1.84 0 0 1 2.116.345 1.84 1.84 0 0 1 0 2.6c-.358.36-.829.538-1.3.538-.47 0-.941-.179-1.3-.537a1.84 1.84 0 0 1-.345-2.117l-3.855-3.855a2.45 2.45 0 0 1-.722-1.743V29.98H23.09v2.545a.586.586 0 0 1-1.172 0V29.98h-1.333v9.434a.586.586 0 1 1-1.172 0V29.98h-1.333v2.545a.586.586 0 0 1-1.172 0V29.98h-1.333v5.187a1.84 1.84 0 0 1 1.252 1.742 1.84 1.84 0 0 1-1.838 1.838 1.84 1.84 0 0 1-1.839-1.838c0-.809.526-1.497 1.253-1.742V29.98h-1.293a3.094 3.094 0 0 1-3.09-3.091v-1.293H8.253c-.345 0-.67.134-.914.379l-3.854 3.853c.125.251.192.53.192.819 0 .49-.191.952-.538 1.3a1.83 1.83 0 0 1-1.3.537c-.491 0-.954-.19-1.3-.538a1.83 1.83 0 0 1-.539-1.3c0-.49.191-.952.538-1.3A1.832 1.832 0 0 1 2.656 29l3.854-3.852a2.45 2.45 0 0 1 1.743-.723h1.768V23.09H7.475a.586.586 0 0 1 0-1.172h2.546v-1.333H.585a.586.586 0 1 1 0-1.172h9.435v-1.333H7.475a.586.586 0 0 1 0-1.172h2.546v-1.333H4.833a1.84 1.84 0 0 1-1.742 1.252 1.84 1.84 0 0 1-1.838-1.838 1.84 1.84 0 0 1 1.838-1.839c.809 0 1.497.526 1.742 1.253h5.188v-1.293c0-.261.031-.521.096-.772.08-.314.4-.502.714-.421m19.816 25.577a.666.666 0 1 0-.002 1.332.666.666 0 0 0 .002-1.332M14.99 36.242a.667.667 0 1 0 .666.667.67.67 0 0 0-.666-.667M1.84 29.98a.664.664 0 0 0-.667.666.663.663 0 0 0 .667.666.66.66 0 0 0 .666-.666.663.663 0 0 0-.666-.666M20 0c.324 0 .586.262.586.586v9.435h1.333V7.475a.586.586 0 0 1 1.172 0v2.546h1.333V4.833a1.84 1.84 0 0 1-1.252-1.742 1.84 1.84 0 0 1 1.838-1.838 1.84 1.84 0 0 1 1.839 1.838c0 .809-.526 1.497-1.253 1.742v5.188h1.293a3.094 3.094 0 0 1 3.09 3.09v1.293h1.768c.345 0 .67-.134.914-.379l3.854-3.853a1.8 1.8 0 0 1-.192-.818c0-.491.191-.953.538-1.3a1.83 1.83 0 0 1 1.301-.54c.491 0 .953.193 1.3.54s.538.809.538 1.3c0 .49-.191.952-.538 1.3a1.832 1.832 0 0 1-2.118.347l-3.854 3.853a2.45 2.45 0 0 1-1.743.722H29.98v1.333h2.545a.586.586 0 0 1 0 1.172H29.98v1.333h9.434a.586.586 0 1 1 0 1.172H29.98v1.333h2.545a.586.586 0 0 1 0 1.172H29.98v1.333h5.187a1.84 1.84 0 0 1 1.742-1.252 1.84 1.84 0 0 1 1.838 1.838 1.84 1.84 0 0 1-1.838 1.839 1.84 1.84 0 0 1-1.742-1.253H29.98v1.293c0 .26-.033.52-.097.771a.587.587 0 0 1-1.135-.29q.06-.237.06-.481V13.11c0-1.058-.861-1.919-1.92-1.919H13.112q-.245 0-.48.06a.587.587 0 0 1-.292-1.135c.251-.064.511-.097.772-.097h1.293V8.254c0-.345-.134-.67-.379-.914l-3.854-3.855a1.84 1.84 0 0 1-2.117-.345 1.84 1.84 0 0 1 0-2.6 1.84 1.84 0 0 1 2.6 0c.571.571.686 1.429.345 2.116l3.855 3.855a2.45 2.45 0 0 1 .722 1.743v1.768h1.333V7.475a.586.586 0 0 1 1.172 0v2.546h1.333V.585c0-.324.262-.586.586-.586m1.762 13.151c1.294 0 2.346.966 2.346 2.152q0 .242-.057.472c1.255.345 2.172 1.406 2.172 2.66 0 .702-.3 1.372-.816 1.879.516.506.816 1.176.816 1.878 0 .955-.545 1.84-1.415 2.344-.087 1.288-1.262 2.313-2.695 2.313A2.8 2.8 0 0 1 20 25.914a2.8 2.8 0 0 1-2.113.935c-1.489 0-2.7-1.106-2.7-2.465v-.001c-.877-.577-1.409-1.508-1.409-2.504 0-.655.225-1.27.617-1.777a2.57 2.57 0 0 1-.617-1.667c0-1.254.916-2.315 2.171-2.66a2 2 0 0 1-.057-.472c0-1.186 1.052-2.151 2.346-2.152.701 0 1.332.284 1.762.732a2.44 2.44 0 0 1 1.762-.732m-.001 1.172c-.648 0-1.175.44-1.175.98a.586.586 0 0 1-1.172 0c0-.54-.528-.98-1.176-.98s-1.174.44-1.174.98c0 .255.116.447.213.562l.001.001.029.037q0 .003.004.005l.003.006.01.014.004.007a.585.585 0 0 1-.497.894h-.016c-1.03.007-1.866.724-1.866 1.606 0 .318.113.624.32.885.321-.197.682-.348 1.075-.438a.586.586 0 0 1 .262 1.142c-.975.224-1.657.987-1.657 1.855 0 .481.216.942.586 1.292q.15-.244.363-.454a.585.585 0 1 1 .825.83 1.18 1.18 0 0 0-.365.837c0 .713.686 1.293 1.528 1.293s1.528-.58 1.528-1.293V23.13c0-.538-.402-1.024-.999-1.212a.586.586 0 0 1 .352-1.118c.233.073.45.176.647.3v-3.253a.586.586 0 1 1 1.172 0v.748c.435-.274.96-.434 1.527-.434a.586.586 0 0 1 0 1.172c-.842 0-1.527.58-1.527 1.292v3.758c0 .713.685 1.293 1.527 1.293.843 0 1.528-.58 1.528-1.293 0-.538-.401-1.025-.998-1.213a.586.586 0 0 1 .35-1.118c.688.216 1.233.67 1.541 1.24.324-.294.516-.688.516-1.1 0-.555-.337-1.064-.902-1.362a.586.586 0 0 1 0-1.036c.565-.298.902-.807.902-1.36 0-.882-.835-1.6-1.865-1.606h-.033a2.1 2.1 0 0 0-.81.164.586.586 0 0 1-.455-1.08q.46-.194.962-.241a.8.8 0 0 0 .087-.37c0-.54-.527-.979-1.175-.979m15.148 10.02a.667.667 0 1 0 0 1.335.667.667 0 0 0 0-1.334M3.091 14.324a.667.667 0 1 0 .003 1.335.667.667 0 0 0-.003-1.335m35.07-5.635a.66.66 0 0 0-.666.666.663.663 0 0 0 .666.667.664.664 0 0 0 .667-.667.663.663 0 0 0-.667-.666M25.01 2.425a.667.667 0 1 0 .001 1.333.667.667 0 0 0-.001-1.333M9.354 1.172a.666.666 0 1 0-.002 1.331.666.666 0 0 0 .002-1.331"/></svg>