<svg xmlns="http://www.w3.org/2000/svg" width="34" height="40" fill="none"><path fill="#fff" d="M20.626 0a3.096 3.096 0 0 1 3.093 3.092v7.57c5.23.286 9.392 4.365 9.392 9.338s-4.162 9.052-9.393 9.338v7.57A3.096 3.096 0 0 1 20.626 40H3.092A3.096 3.096 0 0 1 0 36.908v-7.241a.587.587 0 0 1 1.174 0v3.523h21.37v-3.852a10.5 10.5 0 0 1-2.89-.568l-4.382 2.391c-.466.254-1.014-.22-.834-.716l1.308-3.595H9.041a.6.6 0 0 1-.415-.172L3.93 21.98a.6.6 0 0 1-.172-.415V8.73c0-.325.262-.588.587-.588h15.029c.324 0 .587.263.587.588v2.4c.819-.257 1.685-.418 2.583-.467V6.184H1.174v20.705a.587.587 0 0 1-1.174 0V3.092A3.096 3.096 0 0 1 3.092 0zM1.174 36.908a1.92 1.92 0 0 0 1.918 1.918h17.534a1.92 1.92 0 0 0 1.918-1.918v-2.544H1.174zm11.937-1.84c.324 0 .588.263.588.587v1.88a.59.59 0 0 1-.588.586h-2.505a.587.587 0 0 1-.586-.587v-1.879c0-.324.262-.587.586-.587zm-1.918 1.88h1.331v-.706h-1.33zM23.131 11.82c-4.856 0-8.806 3.67-8.806 8.18 0 2.217.94 4.293 2.648 5.846.176.16.238.41.157.634l-1.057 2.907 3.252-1.775a.59.59 0 0 1 .489-.033c1.054.399 2.17.6 3.317.6 4.856 0 8.807-3.668 8.807-8.179 0-4.51-3.951-8.18-8.807-8.18m0 1.33c.324 0 .587.263.588.587v1.292h.039a2.47 2.47 0 0 1 2.466 2.466v.626a.588.588 0 0 1-1.175 0v-.626c0-.712-.58-1.292-1.291-1.292h-.94c-.885 0-1.605.72-1.605 1.606 0 .884.72 1.604 1.605 1.604h.626a2.78 2.78 0 0 1 2.78 2.778c0 1.44-1.101 2.628-2.505 2.766v1.305a.588.588 0 0 1-1.175 0V24.97h-.04a2.47 2.47 0 0 1-2.465-2.466.587.587 0 0 1 1.174 0c0 .712.58 1.292 1.292 1.292h.94a1.606 1.606 0 0 0 0-3.21h-.627a2.78 2.78 0 0 1-2.779-2.778c0-1.44 1.1-2.628 2.505-2.766v-1.306c0-.324.263-.586.587-.587M4.93 20.98h4.11c.324 0 .587.262.587.586v4.11h5.567c-1.327-1.62-2.045-3.592-2.045-5.675 0-1.112.21-2.18.591-3.17H7.476a.587.587 0 0 1 0-1.175h6.819c.4-.71.894-1.367 1.467-1.956h-2.024a.588.588 0 0 1 0-1.175h3.131q.113.002.213.041c.53-.379 1.1-.71 1.705-.985V9.315H4.932zm3.523 3.866v-2.693H5.762zm3.405-6.058a.587.587 0 0 1 0 1.174H7.476a.587.587 0 0 1 0-1.174zm-.626-6.263a.587.587 0 0 1 0 1.174H7.476a.587.587 0 1 1 0-1.174zM3.092 1.174a1.92 1.92 0 0 0-1.918 1.918V5.01h21.37V3.092a1.92 1.92 0 0 0-1.918-1.918zm10.02 1.33a.588.588 0 1 1 0 1.175h-2.506a.587.587 0 0 1 0-1.174z"/></svg>