<svg xmlns="http://www.w3.org/2000/svg" width="20" height="17" fill="none"><path fill="#fff" d="M20 1.924a8.2 8.2 0 0 1-2.357.646A4.1 4.1 0 0 0 19.448.3a8.2 8.2 0 0 1-2.606.996A4.1 4.1 0 0 0 13.847 0c-2.65 0-4.596 2.472-3.998 5.038A11.65 11.65 0 0 1 1.393.75a4.11 4.11 0 0 0 1.269 5.478 4.1 4.1 0 0 1-1.858-.513C.76 7.616 2.122 9.395 4.095 9.79a4.1 4.1 0 0 1-1.853.07 4.11 4.11 0 0 0 3.833 2.849A8.25 8.25 0 0 1 0 14.41a11.6 11.6 0 0 0 6.29 1.843c7.618 0 11.923-6.434 11.663-12.205A8.4 8.4 0 0 0 20 1.924"/></svg>